<?xml version="1.0" encoding="utf-8"?>
<!-- Generator: Adobe Illustrator 20.0.0, SVG Export Plug-In . SVG Version: 6.00 Build 0)  -->
<svg version="1.1" id="Слой_1" xmlns="http://www.w3.org/2000/svg" xmlns:xlink="http://www.w3.org/1999/xlink" x="0px" y="0px"
	 viewBox="0 0 142 42.7" style="enable-background:new 0 0 142 42.7;" xml:space="preserve">
<style type="text/css">
	.st0{fill:#E0B319;}
</style>
<g>
	<path class="st0" d="M120.7,42.7H21.3C9.6,42.7,0,33.1,0,21.4S9.6,0,21.3,0h99.3C132.4,0,142,9.6,142,21.4S132.4,42.7,120.7,42.7z
		 M21.3,1C10.1,1,1,10.2,1,21.4s9.1,20.3,20.3,20.3h99.3c11.2,0,20.3-9.1,20.3-20.3S131.9,1,120.7,1H21.3z"/>
</g>
<g>
	<path class="st0" d="M42.2,21.9c1.2,0.2,2.1,1.1,2.1,2.2c0,1.6-1.3,3-4.2,3c-1.4,0-2.2-0.3-2.5-0.7c-0.2-0.2-0.2-0.4-0.2-0.7
		c0-0.2,0-0.5,0.1-0.7l1.2-6.8c0-0.3,0.1-0.5,0.1-0.7h-0.1c-1.3,0-1.9,0.7-1.9,1.5c0,0.4,0.2,0.6,0.6,0.6c0.2,0,0.2,0,0.2,0
		s0,0,0,0.1c0,0.3-0.3,0.8-1.1,0.8c-0.9,0-1.5-0.6-1.5-1.4c0-1.4,1.3-2.4,3.5-2.4h1.9c3.3,0,4.4,1.2,4.4,2.6
		C44.8,20.5,44,21.7,42.2,21.9z M39.8,22.3l-0.5,2.9c-0.1,0.4-0.1,0.8-0.1,1.1c0.2,0,0.4,0,0.7,0c1.5,0,2.5-1,2.5-2.4
		c0-1.1-0.7-1.7-1.7-1.7H39.8z M40.6,17.5l-0.7,4.1h0.8c1.1,0,2.1-0.8,2.1-2.4c0-1.1-0.7-1.7-1.8-1.7H40.6z"/>
	<path class="st0" d="M54.3,20.6c0,3.7-1.9,6.6-5,6.6c-1.9,0-3.3-1.3-3.3-3.9c0-3.8,2-6.6,5-6.6C53.1,16.7,54.3,18.2,54.3,20.6z
		 M47.9,23.8c0,1.9,0.7,2.5,1.6,2.5c1.2,0,2.3-1.4,2.8-4.4c0.1-0.7,0.2-1.4,0.2-1.9c0-1.9-0.7-2.5-1.6-2.5c-1.1,0-2.3,1.3-2.8,4.4
		C48,22.6,47.9,23.3,47.9,23.8z"/>
	<path class="st0" d="M64,20.6c0,3.7-1.9,6.6-5,6.6c-1.9,0-3.3-1.3-3.3-3.9c0-3.8,2-6.6,5-6.6C62.8,16.7,64,18.2,64,20.6z
		 M57.6,23.8c0,1.9,0.7,2.5,1.6,2.5c1.2,0,2.3-1.4,2.8-4.4c0.1-0.7,0.2-1.4,0.2-1.9c0-1.9-0.7-2.5-1.6-2.5c-1.1,0-2.3,1.3-2.8,4.4
		C57.7,22.6,57.6,23.3,57.6,23.8z"/>
	<path class="st0" d="M73.6,17c0.8,0,1.3-0.2,1.3-0.2C75,16.9,75,17,75,17.3c0,0.7-0.5,1.3-1.7,1.3c-1,0-1.5-0.2-2.3-0.5l-1.3,7.6
		c-0.2,1,0,1.3,0,1.3s-0.2,0.1-0.8,0.1c-1,0-1.2-0.4-1-1.5l1.3-7.5c0.1-0.3,0.1-0.5,0.1-0.5c-0.4-0.1-0.6-0.1-1.2-0.1
		c-1.3,0-1.9,0.7-1.9,1.5c0,0.4,0.2,0.6,0.6,0.6c0.2,0,0.2,0,0.2,0s0,0,0,0.1c0,0.3-0.3,0.8-1.1,0.8c-0.9,0-1.5-0.6-1.5-1.4
		c0-1.4,1.2-2.4,3.7-2.4C69.7,16.7,70.8,17,73.6,17z"/>
	<path class="st0" d="M75.3,16.9c0.2-0.9,0-1.2,0-1.2s0.2-0.1,0.7-0.1c1.1,0,1.2,0.4,1,1.4l-1.4,7.7c-0.1,0.8,0.1,1.2,0.6,1.2
		c0.6,0,1.2-0.5,1.5-1.2c0.2,0,0.3,0.1,0.3,0.4c-0.1,0.7-1.2,2.1-2.6,2.1c-1,0-1.6-0.6-1.6-1.7c0-0.3,0-0.8,0.1-1.3L75.3,16.9z"/>
	<path class="st0" d="M78.3,21.5c0.2-0.9,0-1.2,0-1.2s0.2-0.1,0.7-0.1c1.1,0,1.2,0.4,1,1.4l-0.5,3.1c-0.1,0.8,0.1,1.2,0.6,1.2
		c0.5,0,1.1-0.5,1.5-1.2c0.2,0,0.3,0.1,0.3,0.4c-0.1,0.7-1.1,2.1-2.5,2.1c-1,0-1.6-0.6-1.6-1.7c0-0.3,0-0.8,0.1-1.3L78.3,21.5z
		 M79.8,17.1c0.5,0,0.9,0.4,0.9,0.9c0,0.5-0.4,1-1,1c-0.5,0-0.8-0.3-0.8-0.8C78.8,17.5,79.2,17.1,79.8,17.1z"/>
	<path class="st0" d="M81.3,24.2c0-2.4,1.8-4,3.7-4c1.2,0,2,0.7,2,1.6c0,0.8-0.5,1.4-1.2,1.4c-0.5,0-0.7-0.3-0.7-0.3
		s0.5-0.4,0.5-1.3c0-0.4-0.3-0.6-0.6-0.6c-0.9,0-1.9,1.2-1.9,3c0,1.3,0.7,2.1,2,2.1c1.4,0,2.3-0.7,2.7-1.3c0.2,0,0.3,0.1,0.2,0.4
		c-0.1,0.6-1.4,2.1-3.6,2.1C82.6,27.1,81.3,26,81.3,24.2z"/>
	<path class="st0" d="M89.4,25.8c-0.2,0.9,0,1.2,0,1.2s-0.2,0.1-0.7,0.1c-1.1,0-1.2-0.4-1-1.4l1.5-8.8c0.2-0.9,0-1.2,0-1.2
		s0.2-0.1,0.7-0.1c1.1,0,1.2,0.4,1,1.4l-1.1,6.5h0.6c0.4,0,0.7-0.5,0.8-0.8l0.5-1.1c0.6-1.1,1-1.4,1.6-1.4c0.6,0,0.9,0.4,0.9,0.9
		c0,0.6-0.5,1-0.5,1s-0.1-0.5-0.7-0.5c-0.4,0-0.7,0.3-1,0.8l-0.2,0.5c-0.1,0.3-0.3,0.5-0.5,0.6c0.5,0.1,0.8,0.5,0.9,0.9l0.2,0.5
		c0.2,0.6,0.5,1,1,1c0.6,0,1.2-0.6,1.5-1.2c0.2,0,0.3,0.1,0.3,0.4c-0.1,0.7-1.2,2.1-2.5,2.1c-0.9,0-1.6-0.5-1.9-1.6l-0.2-0.7
		c-0.1-0.4-0.3-0.6-0.7-0.6h-0.3L89.4,25.8z"/>
	<path class="st0" d="M94.7,24.1c0-2.5,1.9-3.9,3.7-3.9c1.4,0,2,0.7,2,1.4c0,1.3-1.5,2.1-3.9,2.6c0.1,1,0.8,1.8,2,1.8
		c1.5,0,2.3-0.7,2.7-1.3c0.2,0,0.3,0.1,0.2,0.4c-0.1,0.6-1.5,2.1-3.6,2.1C96,27.1,94.7,26,94.7,24.1z M96.5,23.5
		c1.7-0.4,2.4-1.2,2.4-2.2c0-0.3-0.2-0.5-0.5-0.5C97.7,20.9,96.7,21.8,96.5,23.5z"/>
	<path class="st0" d="M103.4,22.2c0.9-1.5,1.8-2,2.4-2c0.7,0,1.1,0.4,1.1,1.1c0,0.8-0.5,1.3-1.2,1.3c-0.4,0-0.6-0.1-0.6-0.1
		s0.2-0.3,0.2-0.7c0-0.2-0.1-0.3-0.3-0.3c-0.2,0-0.5,0.2-1,0.8c-0.5,0.7-1,1.6-1.3,3.6c-0.1,0.8,0,1.1,0,1.1s-0.2,0.1-0.7,0.1
		c-1.1,0-1.2-0.4-1-1.4l0.7-4.2c0.2-0.9,0-1.2,0-1.2s0.2-0.1,0.7-0.1c1.1,0,1.2,0.4,1,1.4L103.4,22.2z"/>
</g>
</svg>
